<svg width="274" height="79" fill="#474747" xmlns="http://www.w3.org/2000/svg">
    <path d="M37.864 70.08c-7.808 0-13.92-2.208-18.336-6.624C15.176 58.976 13 52.704 13 44.64c0-4.544.832-8.736 2.496-12.576 1.664-3.84 4.224-6.944 7.68-9.312 3.456-2.368 7.712-3.552 12.768-3.552 4.736 0 8.832 1.12 12.288 3.36 3.456 2.176 6.08 5.12 7.872 8.832 1.792 3.648 2.688 7.648 2.688 12 0 1.216-.416 2.24-1.248 3.072-.768.832-1.824 1.248-3.168 1.248H21.832c.512 4.48 2.176 7.968 4.992 10.464 2.816 2.496 6.752 3.744 11.808 3.744 2.688 0 5.024-.256 7.008-.768a29.005 29.005 0 0 0 5.952-2.208c.512-.256 1.088-.384 1.728-.384 1.024 0 1.92.352 2.688 1.056.768.704 1.152 1.6 1.152 2.688 0 1.408-.832 2.592-2.496 3.552-2.496 1.408-4.96 2.464-7.392 3.168-2.432.704-5.568 1.056-9.408 1.056zm12.288-29.472c-.192-3.136-1.024-5.76-2.496-7.872-1.408-2.112-3.168-3.648-5.28-4.608-2.112-1.024-4.256-1.536-6.432-1.536s-4.32.512-6.432 1.536c-2.112.96-3.872 2.496-5.28 4.608-1.408 2.112-2.208 4.736-2.4 7.872h28.32zM86.165 69.6a5.592 5.592 0 0 1-3.169-.96c-.96-.704-1.663-1.568-2.111-2.592L64.18 26.112c-.32-.768-.48-1.44-.48-2.016 0-1.216.416-2.24 1.248-3.072.833-.896 1.857-1.344 3.073-1.344.832 0 1.6.256 2.303.768.769.448 1.313 1.024 1.633 1.728l14.688 37.248 14.688-37.248c.32-.704.831-1.28 1.535-1.728.768-.512 1.569-.768 2.401-.768 1.216 0 2.239.448 3.071 1.344.832.832 1.249 1.856 1.249 3.072 0 .576-.16 1.248-.48 2.016L92.405 66.048c-.448 1.024-1.153 1.888-2.112 2.592-.96.64-2.017.96-3.169.96h-.96zM140.926 70.08c-7.808 0-13.92-2.208-18.336-6.624-4.352-4.48-6.528-10.752-6.528-18.816 0-4.544.833-8.736 2.497-12.576s4.223-6.944 7.679-9.312c3.456-2.368 7.713-3.552 12.769-3.552 4.736 0 8.831 1.12 12.287 3.36 3.456 2.176 6.081 5.12 7.873 8.832 1.792 3.648 2.688 7.648 2.688 12 0 1.216-.416 2.24-1.248 3.072-.768.832-1.824 1.248-3.168 1.248h-32.544c.512 4.48 2.176 7.968 4.992 10.464 2.816 2.496 6.752 3.744 11.808 3.744 2.688 0 5.024-.256 7.007-.768a29.005 29.005 0 0 0 5.952-2.208c.512-.256 1.089-.384 1.729-.384 1.024 0 1.919.352 2.687 1.056.768.704 1.153 1.6 1.153 2.688 0 1.408-.832 2.592-2.496 3.552-2.496 1.408-4.96 2.464-7.392 3.168-2.432.704-5.569 1.056-9.409 1.056zm12.289-29.472c-.192-3.136-1.024-5.76-2.496-7.872-1.408-2.112-3.168-3.648-5.28-4.608-2.112-1.024-4.256-1.536-6.432-1.536s-4.32.512-6.432 1.536c-2.112.96-3.873 2.496-5.281 4.608-1.408 2.112-2.207 4.736-2.399 7.872h28.32zM175.717 69.12c-1.728 0-3.167-.448-4.319-1.344-1.152-.896-1.729-2.144-1.729-3.744 0-1.472.513-2.784 1.537-3.936l27.648-31.776h-24.288c-1.152 0-2.112-.384-2.88-1.152-.768-.768-1.153-1.728-1.153-2.88s.385-2.112 1.153-2.88c.768-.832 1.728-1.248 2.88-1.248h29.088c1.664 0 3.008.512 4.032 1.536s1.535 2.336 1.535 3.936c0 1.472-.447 2.752-1.343 3.84L180.997 60.96h24.672c1.152 0 2.112.416 2.88 1.248.833.768 1.249 1.728 1.249 2.88s-.416 2.112-1.249 2.88c-.768.768-1.728 1.152-2.88 1.152h-29.952zM225.354 14.176c-1.344 0-2.496-.48-3.456-1.44s-1.44-2.112-1.44-3.456v-.384c0-1.344.48-2.496 1.44-3.456S224.01 4 225.354 4h.576c1.344 0 2.496.48 3.456 1.44s1.44 2.112 1.44 3.456v.384c0 1.344-.48 2.496-1.44 3.456s-2.112 1.44-3.456 1.44h-.576zm.192 55.424c-1.216 0-2.24-.416-3.072-1.248-.832-.832-1.248-1.856-1.248-3.072V24.096c0-1.216.416-2.24 1.248-3.072.832-.896 1.856-1.344 3.072-1.344 1.28 0 2.336.416 3.168 1.248.832.832 1.248 1.888 1.248 3.168V65.28c0 1.216-.448 2.24-1.344 3.072-.832.832-1.856 1.248-3.072 1.248zM249.452 69.6c-1.216 0-2.24-.416-3.072-1.248-.832-.832-1.248-1.856-1.248-3.072V24.096c0-1.216.416-2.24 1.248-3.072.832-.896 1.856-1.344 3.072-1.344s2.24.448 3.072 1.344c.896.832 1.344 1.856 1.344 3.072v4.128c4.48-6.016 9.504-9.024 15.072-9.024h.48c1.216 0 2.208.416 2.976 1.248.832.832 1.248 1.856 1.248 3.072s-.416 2.208-1.248 2.976c-.832.768-1.888 1.152-3.168 1.152h-.48c-3.072 0-5.888.768-8.448 2.304-2.56 1.472-4.704 3.52-6.432 6.144V65.28c0 1.216-.448 2.24-1.344 3.072-.832.832-1.856 1.248-3.072 1.248z" />
    <g filter="url(#a)" fill="#F65314">
        <path d="M36.55 59.59c0-3.08-2.06-5.58-4.59-5.59-10.32 0-14.81 5.26-19.14 10.52-4.32 5.26-7.99 1.21-8.82-.41 0 0 .34 6.27 11.82 6.27 5.16 0 8.55-5.13 16.63-5.13v-.02c2.31-.3 4.1-2.75 4.1-5.64zM37.98 59.59c0-3.08 2.05-5.58 4.59-5.59 10.32 0 14.81 5.26 19.14 10.52s7.99 1.21 8.82-.41c0 0-.33 6.27-11.81 6.27-5.16 0-8.55-5.13-16.63-5.13v-.02c-2.33-.3-4.11-2.75-4.11-5.64z" />
    </g>
    <g filter="url(#b) ">
        <path d="m54.3 42.84-4.81-25.95C49.2 15.3 47.64 14 46.02 14h-8.13v16.21c-.02.58.12 2.2.92 3.03.1.1.21.19.33.26.36-.23.81-.31 1.26-.2.18.05.34.13.49.23l3.94 1.86-.36.76-2.86-1.35c.01.16 0 .32-.04.48-.01.04-.03.08-.04.12l2.62 1.91-.5.68-2.58-1.88c-.17.14-.36.25-.57.32l2.29 2.2-.59.61-3.18-3.06c-.29-.22-.49-.54-.58-.89-.37-.18-.71-.41-1.01-.72-1.54-1.59-1.46-4.28-1.46-4.39V14.01h-1.08v.02l-.6-.02h-7.96c-1.61 0-3.18 1.3-3.47 2.89l-4.81 25.95c-.3 1.59.79 2.89 2.4 2.89h31.43c1.63-.01 2.71-1.31 2.42-2.9z" fill="#F65314" />
    </g>
    <defs>
        <filter id="a" x="0" y="54" width="74.53" height="24.38" filterUnits="userSpaceOnUse" color-interpolation-filters="sRGB">
            <feFlood flood-opacity="0" result="BackgroundImageFix" />
            <feColorMatrix in="SourceAlpha" values="0 0 0 0 0 0 0 0 0 0 0 0 0 0 0 0 0 0 127 0" result="hardAlpha" />
            <feOffset dy="4" />
            <feGaussianBlur stdDeviation="2" />
            <feComposite in2="hardAlpha" operator="out" />
            <feColorMatrix values="0 0 0 0 0 0 0 0 0 0 0 0 0 0 0 0 0 0 0.25 0" />
            <feBlend in2="BackgroundImageFix" result="effect1_dropShadow_1_4" />
            <feBlend in="SourceGraphic" in2="effect1_dropShadow_1_4" result="shape" />
        </filter>
        <filter id="b" x="14" y="14" width="44.347" height="39.74" filterUnits="userSpaceOnUse" color-interpolation-filters="sRGB">
            <feFlood flood-opacity="0" result="BackgroundImageFix" />
            <feColorMatrix in="SourceAlpha" values="0 0 0 0 0 0 0 0 0 0 0 0 0 0 0 0 0 0 127 0" result="hardAlpha" />
            <feOffset dy="4" />
            <feGaussianBlur stdDeviation="2" />
            <feComposite in2="hardAlpha" operator="out" />
            <feColorMatrix values="0 0 0 0 0 0 0 0 0 0 0 0 0 0 0 0 0 0 0.25 0" />
            <feBlend in2="BackgroundImageFix" result="effect1_dropShadow_1_4" />
            <feBlend in="SourceGraphic" in2="effect1_dropShadow_1_4" result="shape" />
        </filter>
    </defs>
</svg>