<svg width="354" height="100" viewBox="0 0 354 100" fill="none" xmlns="http://www.w3.org/2000/svg">
<path d="M47.9291 90.9092C37.8004 90.9092 29.8718 88.045 24.1432 82.3165C18.4977 76.5049 15.675 68.3687 15.675 57.9079C15.675 52.0134 16.7543 46.5754 18.9129 41.5941C21.0714 36.6128 24.3923 32.5862 28.8755 29.5144C33.3587 26.4426 38.8797 24.9066 45.4384 24.9066C51.5821 24.9066 56.8955 26.3595 61.3787 29.2653C65.8619 32.0881 69.2658 35.9071 71.5904 40.7224C73.915 45.4546 75.0773 50.6435 75.0773 56.289C75.0773 57.8664 74.5377 59.1948 73.4584 60.2741C72.4621 61.3534 71.0923 61.893 69.3488 61.893H27.132C27.7962 67.7046 29.9548 72.2293 33.6078 75.4671C37.2607 78.705 42.3666 80.3239 48.9254 80.3239C52.4123 80.3239 55.4426 79.9918 58.0163 79.3277C60.673 78.6635 63.2467 77.7087 65.7373 76.4634C66.4015 76.1313 67.1487 75.9653 67.9789 75.9653C69.3073 75.9653 70.4696 76.4219 71.4659 77.3351C72.4621 78.2484 72.9603 79.4107 72.9603 80.8221C72.9603 82.6485 71.881 84.1845 69.7224 85.4298C66.4845 87.2563 63.2882 88.6261 60.1333 89.5394C56.9785 90.4526 52.9104 90.9092 47.9291 90.9092ZM63.8693 52.6776C63.6203 48.6095 62.541 45.2056 60.6315 42.4658C58.805 39.7261 56.5219 37.7336 53.7821 36.4882C51.0424 35.1599 48.2612 34.4957 45.4384 34.4957C42.6157 34.4957 39.8344 35.1599 37.0947 36.4882C34.355 37.7336 32.0719 39.7261 30.2454 42.4658C28.4189 45.2056 27.3811 48.6095 27.132 52.6776H63.8693Z" fill="white"/>
<path d="M110.586 90.2866C109.091 90.2866 107.721 89.8715 106.476 89.0412C105.231 88.128 104.317 87.0072 103.736 85.6788L82.0674 33.873C81.6523 32.8768 81.4447 32.005 81.4447 31.2578C81.4447 29.6804 81.9844 28.3521 83.0637 27.2728C84.143 26.1105 85.4713 25.5293 87.0487 25.5293C88.128 25.5293 89.1243 25.8614 90.0375 26.5256C91.0338 27.1067 91.7395 27.8539 92.1546 28.7672L111.208 77.0861L130.262 28.7672C130.677 27.8539 131.341 27.1067 132.254 26.5256C133.251 25.8614 134.288 25.5293 135.368 25.5293C136.945 25.5293 138.273 26.1105 139.353 27.2728C140.432 28.3521 140.972 29.6804 140.972 31.2578C140.972 32.005 140.764 32.8768 140.349 33.873L118.68 85.6788C118.099 87.0072 117.186 88.128 115.94 89.0412C114.695 89.8715 113.325 90.2866 111.831 90.2866H110.586Z" fill="white"/>
<path d="M181.624 90.9092C171.495 90.9092 163.567 88.045 157.838 82.3165C152.193 76.5049 149.37 68.3687 149.37 57.9079C149.37 52.0134 150.449 46.5754 152.608 41.5941C154.766 36.6128 158.087 32.5862 162.57 29.5144C167.054 26.4426 172.574 24.9066 179.133 24.9066C185.277 24.9066 190.59 26.3595 195.073 29.2653C199.557 32.0881 202.961 35.9071 205.285 40.7224C207.61 45.4546 208.772 50.6435 208.772 56.289C208.772 57.8664 208.233 59.1948 207.153 60.2741C206.157 61.3534 204.787 61.893 203.044 61.893H160.827C161.491 67.7046 163.65 72.2293 167.303 75.4671C170.956 78.705 176.061 80.3239 182.62 80.3239C186.107 80.3239 189.137 79.9918 191.711 79.3277C194.368 78.6635 196.941 77.7087 199.432 76.4634C200.096 76.1313 200.844 75.9653 201.674 75.9653C203.002 75.9653 204.164 76.4219 205.161 77.3351C206.157 78.2484 206.655 79.4107 206.655 80.8221C206.655 82.6485 205.576 84.1845 203.417 85.4298C200.179 87.2563 196.983 88.6261 193.828 89.5394C190.673 90.4526 186.605 90.9092 181.624 90.9092ZM197.564 52.6776C197.315 48.6095 196.236 45.2056 194.326 42.4658C192.5 39.7261 190.217 37.7336 187.477 36.4882C184.737 35.1599 181.956 34.4957 179.133 34.4957C176.31 34.4957 173.529 35.1599 170.79 36.4882C168.05 37.7336 165.767 39.7261 163.94 42.4658C162.114 45.2056 161.076 48.6095 160.827 52.6776H197.564Z" fill="white"/>
<path d="M226.756 89.6639C224.514 89.6639 222.646 89.0828 221.152 87.9204C219.657 86.7581 218.91 85.1392 218.91 83.0637C218.91 81.1542 219.574 79.4522 220.902 77.9578L256.768 36.7373H225.261C223.767 36.7373 222.521 36.2392 221.525 35.2429C220.529 34.2466 220.031 33.0013 220.031 31.5069C220.031 30.0125 220.529 28.7672 221.525 27.7709C222.521 26.6916 223.767 26.152 225.261 26.152H262.995C265.153 26.152 266.897 26.8162 268.225 28.1445C269.553 29.4729 270.218 31.1748 270.218 33.2504C270.218 35.1599 269.636 36.8203 268.474 38.2317L233.605 79.0786H265.61C267.104 79.0786 268.35 79.6182 269.346 80.6975C270.425 81.6938 270.965 82.9391 270.965 84.4335C270.965 85.9279 270.425 87.1732 269.346 88.1695C268.35 89.1658 267.104 89.6639 265.61 89.6639H226.756Z" fill="white"/>
<path d="M291.145 18.3894C289.402 18.3894 287.907 17.7667 286.662 16.5214C285.416 15.2761 284.794 13.7817 284.794 12.0382V11.5401C284.794 9.79661 285.416 8.30222 286.662 7.05688C287.907 5.81155 289.402 5.18889 291.145 5.18889H291.892C293.636 5.18889 295.13 5.81155 296.375 7.05688C297.621 8.30222 298.243 9.79661 298.243 11.5401V12.0382C298.243 13.7817 297.621 15.2761 296.375 16.5214C295.13 17.7667 293.636 18.3894 291.892 18.3894H291.145ZM291.394 90.2866C289.817 90.2866 288.488 89.7469 287.409 88.6676C286.33 87.5884 285.79 86.26 285.79 84.6826V31.2578C285.79 29.6804 286.33 28.3521 287.409 27.2728C288.488 26.1105 289.817 25.5293 291.394 25.5293C293.055 25.5293 294.424 26.069 295.504 27.1482C296.583 28.2275 297.123 29.5974 297.123 31.2578V84.6826C297.123 86.26 296.541 87.5884 295.379 88.6676C294.3 89.7469 292.972 90.2866 291.394 90.2866Z" fill="white"/>
<path d="M322.406 90.2866C320.828 90.2866 319.5 89.7469 318.421 88.6676C317.341 87.5884 316.802 86.26 316.802 84.6826V31.2578C316.802 29.6804 317.341 28.3521 318.421 27.2728C319.5 26.1105 320.828 25.5293 322.406 25.5293C323.983 25.5293 325.312 26.1105 326.391 27.2728C327.553 28.3521 328.134 29.6804 328.134 31.2578V36.6128C333.946 28.8087 340.463 24.9066 347.686 24.9066H348.309C349.886 24.9066 351.173 25.4463 352.169 26.5256C353.248 27.6049 353.788 28.9332 353.788 30.5106C353.788 32.0881 353.248 33.3749 352.169 34.3712C351.09 35.3674 349.72 35.8656 348.06 35.8656H347.437C343.452 35.8656 339.799 36.8618 336.478 38.8544C333.157 40.7639 330.376 43.4206 328.134 46.8245V84.6826C328.134 86.26 327.553 87.5884 326.391 88.6676C325.312 89.7469 323.983 90.2866 322.406 90.2866Z" fill="white"/>
<g filter="url(#filter0_d_117_2)">
<path d="M46.2245 77.3014C46.2245 73.3059 43.5523 70.0629 40.2703 70.0499C26.883 70.0499 21.0585 76.8733 15.4415 83.6967C9.8375 90.5201 5.07669 85.2663 4 83.1648C4 83.1648 4.44106 91.2984 19.3332 91.2984C26.0268 91.2984 30.4244 84.6437 40.9059 84.6437C40.9059 84.6307 40.9059 84.6177 40.9059 84.6177C43.9025 84.2285 46.2245 81.0504 46.2245 77.3014Z" fill="#F65314"/>
<path d="M48.0796 77.3014C48.0796 73.3059 50.7389 70.0629 54.0338 70.0499C67.4211 70.0499 73.2457 76.8733 78.8626 83.6967C84.4796 90.5201 89.2274 85.2663 90.3041 83.1648C90.3041 83.1648 89.876 91.2984 74.9839 91.2984C68.2903 91.2984 63.8927 84.6437 53.4111 84.6437C53.4111 84.6307 53.4111 84.6177 53.4111 84.6177C50.3886 84.2285 48.0796 81.0504 48.0796 77.3014Z" fill="#F65314"/>
</g>
<g filter="url(#filter1_d_117_2)">
<path d="M69.2498 55.5729L63.0102 21.9101C62.634 19.8475 60.6103 18.1611 58.5088 18.1611H47.9624C47.9624 18.213 47.9624 18.2778 47.9624 18.3168V39.189C47.9365 39.9414 48.1181 42.0429 49.1559 43.1196C49.2856 43.2493 49.4283 43.3661 49.584 43.4569C50.051 43.1585 50.6347 43.0548 51.2185 43.1975C51.452 43.2623 51.6595 43.3661 51.8541 43.4958L56.9651 45.9086L56.4981 46.8945L52.7881 45.1433C52.8011 45.3508 52.7881 45.5584 52.7362 45.7659C52.7232 45.8178 52.6973 45.8697 52.6843 45.9216L56.083 48.3993L55.4344 49.2814L52.0876 46.8426C51.8671 47.0243 51.6206 47.167 51.3482 47.2578L54.3188 50.1116L53.5534 50.9029L49.4283 46.9335C49.0521 46.6481 48.7926 46.233 48.6759 45.7789C48.1959 45.5454 47.7549 45.2471 47.3657 44.8449C45.368 42.7823 45.4718 39.2928 45.4718 39.1501V18.2389V18.187V18.1741H44.0708C44.0708 18.187 44.0708 18.2 44.0708 18.2L43.2924 18.1741H32.9666C30.878 18.1741 28.8414 19.8604 28.4652 21.923L22.2256 55.5859C21.8364 57.6485 23.2504 59.3349 25.3389 59.3349H66.1105C68.225 59.3219 69.626 57.6355 69.2498 55.5729Z" fill="#F65314"/>
</g>
<defs>
<filter id="filter0_d_117_2" x="0" y="70.0499" width="94.3041" height="29.2485" filterUnits="userSpaceOnUse" color-interpolation-filters="sRGB">
<feFlood flood-opacity="0" result="BackgroundImageFix"/>
<feColorMatrix in="SourceAlpha" type="matrix" values="0 0 0 0 0 0 0 0 0 0 0 0 0 0 0 0 0 0 127 0" result="hardAlpha"/>
<feOffset dy="4"/>
<feGaussianBlur stdDeviation="2"/>
<feComposite in2="hardAlpha" operator="out"/>
<feColorMatrix type="matrix" values="0 0 0 0 0 0 0 0 0 0 0 0 0 0 0 0 0 0 0.25 0"/>
<feBlend mode="normal" in2="BackgroundImageFix" result="effect1_dropShadow_117_2"/>
<feBlend mode="normal" in="SourceGraphic" in2="effect1_dropShadow_117_2" result="shape"/>
</filter>
<filter id="filter1_d_117_2" x="18.1611" y="18.1611" width="55.1498" height="49.1738" filterUnits="userSpaceOnUse" color-interpolation-filters="sRGB">
<feFlood flood-opacity="0" result="BackgroundImageFix"/>
<feColorMatrix in="SourceAlpha" type="matrix" values="0 0 0 0 0 0 0 0 0 0 0 0 0 0 0 0 0 0 127 0" result="hardAlpha"/>
<feOffset dy="4"/>
<feGaussianBlur stdDeviation="2"/>
<feComposite in2="hardAlpha" operator="out"/>
<feColorMatrix type="matrix" values="0 0 0 0 0 0 0 0 0 0 0 0 0 0 0 0 0 0 0.25 0"/>
<feBlend mode="normal" in2="BackgroundImageFix" result="effect1_dropShadow_117_2"/>
<feBlend mode="normal" in="SourceGraphic" in2="effect1_dropShadow_117_2" result="shape"/>
</filter>
</defs>
</svg>
